<?xml version="1.0" standalone="yes"?>
<svg width="450" height="450">
<path style="fill:#ffffff; stroke:none;" d="M0 0L0 450L450 450L450 0L0 0z"/>
<path style="fill:#010101; stroke:none;" d="M40 40L40 110L110 110L110 40L40 40M120 40L120 60L130 60L130 70L120 70L120 110L130 110L130 120L140 120L140 130L120 130L120 150L130 150L130 160L100 160L100 150L110 150L110 140L100 140L100 130L110 130L110 120L100 120L100 130L80 130L80 120L70 120L70 130L80 130L80 140L90 140L90 160L80 160L80 180L70 180L70 160L60 160L60 150L70 150L70 140L50 140L50 160L40 160L40 170L50 170L50 160L60 160L60 180L50 180L50 190L40 190L40 240L50 240L50 230L70 230L70 240L80 240L80 250L90 250L90 260L70 260L70 270L80 270L80 280L90 280L90 260L100 260L100 270L110 270L110 260L120 260L120 240L140 240L140 220L130 220L130 230L120 230L120 210L140 210L140 200L150 200L150 220L160 220L160 230L170 230L170 240L190 240L190 260L210 260L210 270L220 270L220 280L200 280L200 270L180 270L180 260L170 260L170 250L160 250L160 260L150 260L150 250L140 250L140 260L150 260L150 290L140 290L140 300L150 300L150 320L130 320L130 310L120 310L120 340L130 340L130 350L140 350L140 370L120 370L120 380L130 380L130 410L160 410L160 380L150 380L150 370L160 370L160 360L170 360L170 350L160 350L160 360L150 360L150 350L140 350L140 340L150 340L150 320L160 320L160 330L170 330L170 320L180 320L180 310L190 310L190 330L180 330L180 360L230 360L230 370L200 370L200 380L180 380L180 370L170 370L170 390L180 390L180 410L190 410L190 400L200 400L200 380L210 380L210 390L220 390L220 380L240 380L240 390L230 390L230 400L210 400L210 410L230 410L230 400L250 400L250 390L270 390L270 400L260 400L260 410L280 410L280 400L310 400L310 410L330 410L330 400L340 400L340 410L350 410L350 400L360 400L360 410L370 410L370 390L390 390L390 380L400 380L400 390L410 390L410 370L390 370L390 380L380 380L380 360L400 360L400 350L410 350L410 320L400 320L400 310L410 310L410 300L400 300L400 290L410 290L410 280L400 280L400 270L410 270L410 250L400 250L400 240L410 240L410 210L400 210L400 220L380 220L380 210L390 210L390 200L410 200L410 180L400 180L400 190L390 190L390 200L380 200L380 210L360 210L360 200L370 200L370 180L390 180L390 170L410 170L410 160L380 160L380 170L370 170L370 180L360 180L360 170L350 170L350 150L380 150L380 140L390 140L390 130L400 130L400 150L410 150L410 120L390 120L390 130L380 130L380 120L350 120L350 130L330 130L330 140L340 140L340 150L330 150L330 160L320 160L320 170L330 170L330 190L320 190L320 200L330 200L330 210L310 210L310 200L300 200L300 190L290 190L290 200L300 200L300 210L290 210L290 220L280 220L280 230L300 230L300 240L290 240L290 250L310 250L310 220L330 220L330 230L320 230L320 270L310 270L310 260L300 260L300 270L290 270L290 260L280 260L280 250L270 250L270 240L260 240L260 210L280 210L280 200L260 200L260 190L280 190L280 140L290 140L290 90L300 90L300 80L310 80L310 100L300 100L300 110L310 110L310 100L320 100L320 110L330 110L330 100L320 100L320 80L330 80L330 70L320 70L320 60L330 60L330 50L320 50L320 40L280 40L280 60L290 60L290 50L300 50L300 70L290 70L290 80L270 80L270 60L260 60L260 40L220 40L220 50L210 50L210 60L220 60L220 70L210 70L210 90L200 90L200 70L180 70L180 50L170 50L170 60L160 60L160 50L150 50L150 40L140 40L140 60L130 60L130 40L120 40M340 40L340 110L410 110L410 40L340 40z"/>
<path style="fill:#ffffff; stroke:none;" d="M50 50L50 100L100 100L100 50L50 50z"/>
<path style="fill:#010101; stroke:none;" d="M190 50L190 60L200 60L200 50L190 50z"/>
<path style="fill:#ffffff; stroke:none;" d="M350 50L350 100L400 100L400 50L350 50z"/>
<path style="fill:#010101; stroke:none;" d="M60 60L60 90L90 90L90 60L60 60z"/>
<path style="fill:#ffffff; stroke:none;" d="M150 60L150 70L140 70L140 80L150 80L150 90L160 90L160 100L150 100L150 120L160 120L160 130L150 130L150 140L140 140L140 150L150 150L150 170L140 170L140 190L150 190L150 180L170 180L170 170L160 170L160 160L180 160L180 180L190 180L190 190L160 190L160 200L190 200L190 190L200 190L200 210L210 210L210 220L220 220L220 200L210 200L210 190L230 190L230 180L240 180L240 190L250 190L250 180L270 180L270 130L280 130L280 120L270 120L270 110L280 110L280 100L270 100L270 110L260 110L260 100L250 100L250 90L260 90L260 80L250 80L250 90L240 90L240 80L230 80L230 70L220 70L220 90L210 90L210 110L200 110L200 90L180 90L180 70L160 70L160 60L150 60M240 60L240 70L260 70L260 60L240 60z"/>
<path style="fill:#010101; stroke:none;" d="M360 60L360 90L390 90L390 60L360 60M150 70L150 80L160 80L160 90L170 90L170 100L160 100L160 120L180 120L180 130L160 130L160 140L180 140L180 130L190 130L190 150L180 150L180 160L190 160L190 150L200 150L200 160L210 160L210 170L190 170L190 180L210 180L210 170L220 170L220 160L230 160L230 170L240 170L240 150L250 150L250 170L260 170L260 150L250 150L250 130L270 130L270 120L260 120L260 110L250 110L250 100L240 100L240 90L220 90L220 110L230 110L230 100L240 100L240 130L220 130L220 120L210 120L210 130L220 130L220 140L200 140L200 120L190 120L190 100L180 100L180 90L170 90L170 80L160 80L160 70L150 70z"/>
<path style="fill:#ffffff; stroke:none;" d="M130 100L130 110L140 110L140 100L130 100M170 100L170 110L180 110L180 100L170 100z"/>
<path style="fill:#010101; stroke:none;" d="M300 120L300 130L320 130L320 120L300 120z"/>
<path style="fill:#ffffff; stroke:none;" d="M350 130L350 140L370 140L370 130L350 130M230 140L230 150L240 150L240 140L230 140z"/>
<path style="fill:#010101; stroke:none;" d="M300 140L300 150L290 150L290 180L310 180L310 140L300 140z"/>
<path style="fill:#ffffff; stroke:none;" d="M210 150L210 160L220 160L220 150L210 150M90 160L90 170L100 170L100 180L110 180L110 190L70 190L70 200L80 200L80 210L70 210L70 230L80 230L80 240L110 240L110 230L80 230L80 220L110 220L110 210L100 210L100 200L120 200L120 180L110 180L110 170L100 170L100 160L90 160M340 180L340 190L330 190L330 200L350 200L350 180L340 180M50 200L50 220L60 220L60 200L50 200M250 200L250 210L230 210L230 220L240 220L240 230L220 230L220 240L200 240L200 250L210 250L210 260L220 260L220 250L240 250L240 260L230 260L230 270L250 270L250 280L270 280L270 290L250 290L250 310L260 310L260 340L240 340L240 300L230 300L230 280L220 280L220 290L210 290L210 310L220 310L220 300L230 300L230 320L220 320L220 340L210 340L210 320L200 320L200 340L190 340L190 350L200 350L200 340L210 340L210 350L220 350L220 340L240 340L240 350L260 350L260 360L280 360L280 340L290 340L290 310L320 310L320 290L330 290L330 320L340 320L340 310L360 310L360 320L370 320L370 330L380 330L380 320L390 320L390 310L400 310L400 300L390 300L390 290L400 290L400 280L390 280L390 270L370 270L370 280L390 280L390 290L380 290L380 310L360 310L360 300L370 300L370 290L360 290L360 270L350 270L350 260L390 260L390 250L380 250L380 230L370 230L370 220L360 220L360 210L350 210L350 220L360 220L360 240L350 240L350 230L330 230L330 250L340 250L340 260L330 260L330 270L320 270L320 290L300 290L300 280L280 280L280 270L250 270L250 260L260 260L260 250L240 250L240 230L250 230L250 210L260 210L260 200L250 200M180 210L180 230L200 230L200 220L190 220L190 210L180 210M300 210L300 220L310 220L310 210L300 210z"/>
<path style="fill:#010101; stroke:none;" d="M340 240L340 250L350 250L350 240L340 240M360 240L360 250L370 250L370 240L360 240M40 250L40 270L50 270L50 260L60 260L60 250L40 250z"/>
<path style="fill:#ffffff; stroke:none;" d="M100 250L100 260L110 260L110 250L100 250z"/>
<path style="fill:#010101; stroke:none;" d="M120 270L120 280L140 280L140 270L120 270z"/>
<path style="fill:#ffffff; stroke:none;" d="M160 270L160 290L150 290L150 300L160 300L160 310L180 310L180 300L190 300L190 290L200 290L200 280L180 280L180 270L160 270z"/>
<path style="fill:#010101; stroke:none;" d="M50 280L50 300L40 300L40 310L50 310L50 320L40 320L40 330L60 330L60 310L80 310L80 320L70 320L70 330L110 330L110 320L90 320L90 310L80 310L80 300L100 300L100 310L110 310L110 300L120 300L120 290L110 290L110 280L100 280L100 290L80 290L80 300L70 300L70 290L60 290L60 280L50 280M170 280L170 290L160 290L160 300L170 300L170 290L180 290L180 280L170 280M330 280L330 290L350 290L350 300L360 300L360 290L350 290L350 280L330 280z"/>
<path style="fill:#ffffff; stroke:none;" d="M100 290L100 300L110 300L110 290L100 290z"/>
<path style="fill:#010101; stroke:none;" d="M270 290L270 300L260 300L260 310L270 310L270 320L280 320L280 290L270 290z"/>
<path style="fill:#ffffff; stroke:none;" d="M50 300L50 310L60 310L60 300L50 300M300 320L300 330L310 330L310 340L300 340L300 350L290 350L290 370L300 370L300 350L310 350L310 380L300 380L300 390L310 390L310 400L320 400L320 390L310 390L310 380L330 380L330 390L340 390L340 400L350 400L350 390L360 390L360 380L350 380L350 370L320 370L320 350L310 350L310 340L320 340L320 320L300 320z"/>
<path style="fill:#010101; stroke:none;" d="M270 330L270 340L260 340L260 350L270 350L270 340L280 340L280 330L270 330z"/>
<path style="fill:#ffffff; stroke:none;" d="M330 330L330 360L360 360L360 330L330 330M390 330L390 340L400 340L400 330L390 330z"/>
<path style="fill:#010101; stroke:none;" d="M40 340L40 410L110 410L110 340L40 340M340 340L340 350L350 350L350 340L340 340z"/>
<path style="fill:#ffffff; stroke:none;" d="M50 350L50 400L100 400L100 350L50 350M370 350L370 360L380 360L380 350L370 350z"/>
<path style="fill:#010101; stroke:none;" d="M60 360L60 390L90 390L90 360L60 360z"/>
<path style="fill:#ffffff; stroke:none;" d="M240 360L240 370L250 370L250 380L270 380L270 370L250 370L250 360L240 360M140 380L140 390L150 390L150 380L140 380z"/>
<path style="fill:#010101; stroke:none;" d="M390 400L390 410L410 410L410 400L390 400z"/>
</svg>
