<?xml version="1.0" standalone="no"?>
<!DOCTYPE svg PUBLIC "-//W3C//DTD SVG 20010904//EN"
 "http://www.w3.org/TR/2001/REC-SVG-20010904/DTD/svg10.dtd">
<svg version="1.0" xmlns="http://www.w3.org/2000/svg"
 width="556.000000pt" height="556.000000pt" viewBox="0 0 556.000000 556.000000"
 preserveAspectRatio="xMidYMid meet">

<g transform="translate(0.000000,556.000000) scale(0.100000,-0.100000)"
fill="#000000" stroke="none">
<path d="M1520 5325 l0 -235 1245 0 1245 0 0 235 0 235 -1245 0 -1245 0 0
-235z"/>
<path d="M2540 4450 c-499 -69 -835 -331 -932 -727 -30 -124 -30 -343 1 -458
64 -238 207 -407 445 -523 140 -69 244 -101 592 -181 327 -75 422 -104 530
-158 173 -86 255 -213 241 -371 -22 -236 -256 -402 -587 -419 -261 -13 -480
52 -620 184 -73 68 -112 132 -133 214 l-14 54 -281 3 -281 2 5 -37 c19 -150
40 -223 91 -327 141 -289 422 -477 826 -553 70 -13 146 -17 322 -17 247 0 328
10 502 60 420 122 677 396 734 784 16 115 6 314 -21 410 -81 283 -298 469
-686 589 -54 17 -218 58 -364 91 -146 34 -303 72 -350 86 -190 57 -326 148
-372 249 -29 65 -32 195 -5 270 70 200 300 314 611 302 74 -2 157 -12 191 -21
204 -55 356 -199 397 -375 l11 -51 274 0 273 0 0 28 c0 54 -38 208 -68 280
-129 302 -395 503 -787 593 -103 23 -430 35 -545 19z"/>
<path d="M1520 260 l0 -250 1245 0 1245 0 0 250 0 250 -1245 0 -1245 0 0 -250z"/>
</g>
</svg>
